<svg xmlns="http://www.w3.org/2000/svg" xmlns:xlink="http://www.w3.org/1999/xlink" width="500" zoomAndPan="magnify" viewBox="0 0 375 374.999991" height="500" preserveAspectRatio="xMidYMid meet" version="1.0"><defs><clipPath id="3431204c43"><path d="M 20 7.191406 L 317 7.191406 L 317 127 L 20 127 Z M 20 7.191406 " clip-rule="nonzero"/></clipPath><clipPath id="257da9378c"><path d="M 105 188 L 355.0625 188 L 355.0625 367.941406 L 105 367.941406 Z M 105 188 " clip-rule="nonzero"/></clipPath></defs><rect x="-37.5" width="450" fill="#ffffff" y="-37.499999" height="449.999989" fill-opacity="1"/><rect x="-37.5" width="450" fill="#ffffff" y="-37.499999" height="449.999989" fill-opacity="1"/><path fill="#ffa9c6" d="M 85.84375 266.582031 C 74.09375 266.582031 64.503906 256.992188 64.503906 245.242188 L 64.503906 111.796875 L 49.363281 123.113281 L 49.363281 245.3125 C 49.363281 265.425781 65.730469 281.792969 85.84375 281.792969 L 151.160156 281.792969 L 151.160156 266.652344 L 85.84375 266.652344 Z M 85.84375 266.582031 " fill-opacity="1" fill-rule="nonzero"/><path fill="#ffa9c6" d="M 272.707031 245.3125 C 272.707031 257.0625 263.121094 266.652344 251.371094 266.652344 L 184.898438 266.652344 L 184.898438 281.792969 L 251.441406 281.792969 C 271.554688 281.792969 287.921875 265.425781 287.921875 245.3125 L 287.921875 123.113281 L 272.78125 111.796875 L 272.78125 245.3125 Z M 272.707031 245.3125 " fill-opacity="1" fill-rule="nonzero"/><g clip-path="url(#3431204c43)"><path fill="#ffa9c6" d="M 168.605469 24.277344 L 304.214844 125.351562 C 305.222656 126.144531 306.375 126.574219 307.601562 126.792969 C 307.960938 126.863281 308.394531 126.863281 308.753906 126.863281 C 311.0625 126.863281 313.371094 125.78125 314.8125 123.835938 C 317.335938 120.519531 316.613281 115.761719 313.296875 113.238281 L 173.148438 8.777344 C 172.714844 8.488281 172.355469 8.199219 171.921875 8.054688 C 170.554688 7.40625 168.96875 7.191406 167.453125 7.40625 C 166.300781 7.621094 165.144531 8.054688 164.136719 8.847656 L 23.988281 113.238281 C 20.671875 115.761719 19.949219 120.449219 22.472656 123.835938 C 24.203125 126.144531 27.015625 127.222656 29.683594 126.792969 C 30.835938 126.574219 31.988281 126.144531 33 125.351562 Z M 168.605469 24.277344 " fill-opacity="1" fill-rule="nonzero"/></g><g clip-path="url(#257da9378c)"><path fill="#55e2d2" d="M 355.039062 215.828125 C 355.039062 202.632812 344.371094 191.964844 331.175781 191.964844 C 317.984375 191.964844 307.3125 202.632812 307.3125 215.828125 C 307.3125 226.351562 314.164062 235.292969 323.679688 238.464844 L 323.679688 278.691406 C 323.679688 319.496094 290.515625 352.730469 249.640625 352.730469 C 210.132812 352.730469 177.691406 321.585938 175.742188 282.511719 C 175.671875 281.289062 175.671875 279.988281 175.671875 278.691406 L 175.671875 246.609375 C 187.566406 245.023438 198.667969 239.691406 207.464844 231.253906 C 214.53125 224.476562 220.800781 216.332031 226.136719 207.101562 C 227.652344 204.507812 229.09375 201.839844 230.390625 199.101562 C 232.191406 195.351562 230.679688 190.808594 226.929688 189.007812 C 223.179688 187.207031 218.640625 188.71875 216.835938 192.46875 C 215.539062 195.0625 214.242188 197.585938 212.800781 200.039062 C 208.183594 207.894531 202.921875 214.671875 197.011719 220.367188 C 180.863281 235.941406 155.484375 235.941406 139.335938 220.367188 C 133.425781 214.671875 128.089844 207.824219 123.476562 199.964844 C 122.035156 197.515625 120.664062 194.992188 119.4375 192.324219 C 117.636719 188.574219 113.09375 186.988281 109.347656 188.863281 C 105.597656 190.667969 104.011719 195.207031 105.886719 198.957031 C 107.253906 201.769531 108.695312 204.507812 110.28125 207.175781 C 115.617188 216.402344 121.890625 224.476562 128.957031 231.253906 C 137.75 239.761719 148.851562 245.023438 160.75 246.609375 L 160.75 278.691406 C 160.75 279.988281 160.75 281.214844 160.820312 282.511719 C 162.839844 329.878906 201.984375 367.796875 249.78125 367.796875 C 298.878906 367.796875 338.816406 327.859375 338.816406 278.765625 L 338.816406 238.535156 C 348.191406 235.292969 355.039062 226.351562 355.039062 215.828125 Z M 331.175781 229.09375 C 323.894531 229.09375 317.910156 223.179688 317.910156 215.828125 C 317.910156 208.472656 323.824219 202.5625 331.175781 202.5625 C 338.457031 202.5625 344.441406 208.472656 344.441406 215.828125 C 344.441406 223.179688 338.457031 229.09375 331.175781 229.09375 Z M 331.175781 229.09375 " fill-opacity="1" fill-rule="nonzero"/></g><path fill="#55e2d2" d="M 331.175781 208.328125 C 327.066406 208.328125 323.75 211.644531 323.75 215.753906 C 323.75 219.863281 327.066406 223.179688 331.175781 223.179688 C 335.285156 223.179688 338.601562 219.863281 338.601562 215.753906 C 338.601562 211.644531 335.285156 208.328125 331.175781 208.328125 Z M 331.175781 219 C 329.445312 219 328.003906 217.558594 328.003906 215.828125 C 328.003906 214.097656 329.445312 212.65625 331.175781 212.65625 C 332.90625 212.65625 334.347656 214.097656 334.347656 215.828125 C 334.347656 217.558594 332.90625 219 331.175781 219 Z M 331.175781 219 " fill-opacity="1" fill-rule="nonzero"/><path fill="#55e2d2" d="M 112.230469 184.105469 C 107.472656 171.996094 104.082031 158.367188 102.066406 143.445312 C 100.695312 132.054688 103.144531 122.898438 109.347656 116.121094 C 115.691406 109.128906 125.0625 105.667969 133.136719 103.867188 C 135.082031 106.605469 138.253906 108.40625 141.859375 108.40625 C 147.699219 108.40625 152.457031 103.648438 152.457031 97.808594 C 152.457031 91.972656 147.699219 87.210938 141.859375 87.210938 C 136.8125 87.210938 132.632812 90.671875 131.550781 95.359375 C 122.105469 97.378906 110.933594 101.558594 103 110.210938 C 95.070312 118.933594 91.828125 130.394531 93.484375 144.382812 L 93.484375 144.453125 C 95.578125 160.171875 99.179688 174.589844 104.300781 187.421875 C 106.316406 185.476562 109.128906 184.179688 112.230469 184.105469 Z M 112.230469 184.105469 " fill-opacity="1" fill-rule="nonzero"/><path fill="#55e2d2" d="M 231.902344 187.566406 C 236.949219 174.734375 240.628906 160.316406 242.71875 144.527344 L 242.71875 144.453125 C 244.375 130.46875 241.203125 118.933594 233.203125 110.28125 C 225.273438 101.632812 214.097656 97.449219 204.652344 95.429688 C 203.570312 90.746094 199.316406 87.285156 194.34375 87.285156 C 188.503906 87.285156 183.746094 92.042969 183.746094 97.882812 C 183.746094 103.722656 188.503906 108.480469 194.34375 108.480469 C 197.949219 108.480469 201.121094 106.679688 203.066406 103.9375 C 211.140625 105.667969 220.511719 109.199219 226.859375 116.195312 C 232.984375 122.972656 235.4375 132.125 234.140625 143.515625 C 232.121094 158.441406 228.730469 172.066406 223.972656 184.179688 C 227.074219 184.179688 229.886719 185.476562 231.902344 187.566406 Z M 231.902344 187.566406 " fill-opacity="1" fill-rule="nonzero"/><path fill="#ffa9c6" d="M 142.292969 149.285156 L 166.15625 149.285156 L 166.15625 125.421875 C 152.960938 125.421875 142.292969 136.09375 142.292969 149.285156 Z M 142.292969 149.285156 " fill-opacity="1" fill-rule="nonzero"/><path fill="#ffa9c6" d="M 142.292969 154.691406 L 166.15625 154.691406 L 166.15625 178.554688 L 142.292969 178.554688 Z M 142.292969 154.691406 " fill-opacity="1" fill-rule="nonzero"/><path fill="#ffa9c6" d="M 171.128906 125.421875 L 171.128906 149.285156 L 194.992188 149.285156 C 194.992188 136.09375 184.324219 125.421875 171.128906 125.421875 Z M 171.128906 125.421875 " fill-opacity="1" fill-rule="nonzero"/><path fill="#ffa9c6" d="M 171.128906 154.691406 L 194.992188 154.691406 L 194.992188 178.554688 L 171.128906 178.554688 Z M 171.128906 154.691406 " fill-opacity="1" fill-rule="nonzero"/></svg>