<svg xmlns="http://www.w3.org/2000/svg" xmlns:xlink="http://www.w3.org/1999/xlink" width="500" zoomAndPan="magnify" viewBox="0 0 375 374.999991" height="500" preserveAspectRatio="xMidYMid meet" version="1.0"><defs><clipPath id="c4c0bd9b3a"><path d="M 9.476562 9.476562 L 365.726562 9.476562 L 365.726562 365.726562 L 9.476562 365.726562 Z M 9.476562 9.476562 " clip-rule="nonzero"/></clipPath><clipPath id="ee497e23a0"><path d="M 138.097656 105.609375 L 365.515625 105.609375 L 365.515625 365.515625 L 138.097656 365.515625 Z M 138.097656 105.609375 " clip-rule="nonzero"/></clipPath><clipPath id="88e110f1b7"><path d="M 365.515625 187.496094 C 365.515625 285.816406 285.816406 365.515625 187.496094 365.515625 C 89.179688 365.515625 9.476562 285.816406 9.476562 187.496094 C 9.476562 89.179688 89.179688 9.476562 187.496094 9.476562 C 285.816406 9.476562 365.515625 89.179688 365.515625 187.496094 Z M 365.515625 187.496094 " clip-rule="nonzero"/></clipPath></defs><g clip-path="url(#c4c0bd9b3a)"><path fill="#a1c2a0" d="M 365.515625 187.496094 C 365.515625 285.816406 285.816406 365.515625 187.496094 365.515625 C 89.179688 365.515625 9.476562 285.816406 9.476562 187.496094 C 9.476562 89.179688 89.179688 9.476562 187.496094 9.476562 C 285.816406 9.476562 365.515625 89.179688 365.515625 187.496094 " fill-opacity="1" fill-rule="nonzero"/></g><g clip-path="url(#ee497e23a0)"><g clip-path="url(#88e110f1b7)"><path fill="#9ab899" d="M 444.738281 249.574219 L 301.027344 105.859375 L 138.199219 269.582031 L 268.566406 399.949219 L 444.738281 249.574219 " fill-opacity="1" fill-rule="nonzero"/></g></g><path fill="#ffffff" d="M 301.027344 105.859375 C 296.273438 101.105469 289.953125 98.488281 283.226562 98.488281 C 276.503906 98.488281 270.179688 101.105469 265.425781 105.859375 L 155.574219 215.710938 L 109.570312 169.703125 C 104.8125 164.949219 98.492188 162.332031 91.765625 162.332031 C 85.042969 162.332031 78.722656 164.949219 73.964844 169.703125 C 64.152344 179.519531 64.152344 195.492188 73.964844 205.304688 L 137.539062 268.878906 C 137.609375 268.953125 137.683594 269.03125 137.773438 269.117188 C 138.980469 270.324219 140.3125 271.414062 141.726562 272.34375 C 145.84375 275.066406 150.640625 276.507812 155.59375 276.507812 C 162.320312 276.507812 168.640625 273.886719 173.390625 269.136719 C 173.625 268.90625 295.828125 146.664062 301.027344 141.460938 C 305.78125 136.707031 308.402344 130.386719 308.402344 123.664062 C 308.402344 116.9375 305.78125 110.617188 301.027344 105.859375 " fill-opacity="1" fill-rule="nonzero"/></svg>