<svg xmlns="http://www.w3.org/2000/svg" xmlns:xlink="http://www.w3.org/1999/xlink" width="500" zoomAndPan="magnify" viewBox="0 0 375 119.999999" height="160" preserveAspectRatio="xMidYMid meet" version="1.0"><defs><g/><clipPath id="da98e2dea6"><path d="M 5 2.839844 L 99 2.839844 L 99 41 L 5 41 Z M 5 2.839844 " clip-rule="nonzero"/></clipPath><clipPath id="c379749b60"><path d="M 32 60 L 111.492188 60 L 111.492188 116.839844 L 32 116.839844 Z M 32 60 " clip-rule="nonzero"/></clipPath></defs><path fill="#ffa9c6" d="M 25.925781 85.066406 C 22.199219 85.066406 19.160156 82.027344 19.160156 78.300781 L 19.160156 36 L 14.359375 39.585938 L 14.359375 78.324219 C 14.359375 84.703125 19.550781 89.890625 25.925781 89.890625 L 46.632812 89.890625 L 46.632812 85.089844 L 25.925781 85.089844 Z M 25.925781 85.066406 " fill-opacity="1" fill-rule="nonzero"/><path fill="#ffa9c6" d="M 85.164062 78.324219 C 85.164062 82.050781 82.125 85.089844 78.398438 85.089844 L 57.328125 85.089844 L 57.328125 89.890625 L 78.421875 89.890625 C 84.796875 89.890625 89.984375 84.703125 89.984375 78.324219 L 89.984375 39.585938 L 85.1875 36 L 85.1875 78.324219 Z M 85.164062 78.324219 " fill-opacity="1" fill-rule="nonzero"/><g clip-path="url(#da98e2dea6)"><path fill="#ffa9c6" d="M 52.160156 8.253906 L 95.152344 40.296875 C 95.46875 40.546875 95.835938 40.683594 96.226562 40.753906 C 96.339844 40.777344 96.476562 40.777344 96.589844 40.777344 C 97.320312 40.777344 98.054688 40.433594 98.511719 39.816406 C 99.308594 38.765625 99.082031 37.257812 98.03125 36.457031 L 53.601562 3.339844 C 53.464844 3.25 53.351562 3.15625 53.214844 3.113281 C 52.777344 2.90625 52.277344 2.839844 51.796875 2.90625 C 51.429688 2.976562 51.066406 3.113281 50.746094 3.363281 L 6.316406 36.457031 C 5.265625 37.257812 5.035156 38.742188 5.835938 39.816406 C 6.386719 40.546875 7.277344 40.890625 8.121094 40.753906 C 8.488281 40.683594 8.851562 40.546875 9.171875 40.296875 Z M 52.160156 8.253906 " fill-opacity="1" fill-rule="nonzero"/></g><g clip-path="url(#c379749b60)"><path fill="#55e2d2" d="M 111.261719 68.976562 C 111.261719 64.796875 107.878906 61.414062 103.699219 61.414062 C 99.515625 61.414062 96.132812 64.796875 96.132812 68.976562 C 96.132812 72.316406 98.304688 75.148438 101.320312 76.152344 L 101.320312 88.90625 C 101.320312 101.84375 90.808594 112.378906 77.851562 112.378906 C 65.324219 112.378906 55.042969 102.503906 54.425781 90.117188 C 54.402344 89.730469 54.402344 89.316406 54.402344 88.90625 L 54.402344 78.738281 C 58.171875 78.234375 61.691406 76.542969 64.480469 73.867188 C 66.71875 71.71875 68.707031 69.136719 70.398438 66.210938 C 70.878906 65.390625 71.335938 64.542969 71.746094 63.675781 C 72.320312 62.488281 71.839844 61.046875 70.652344 60.476562 C 69.460938 59.90625 68.023438 60.382812 67.453125 61.574219 C 67.039062 62.394531 66.628906 63.195312 66.171875 63.972656 C 64.707031 66.464844 63.039062 68.613281 61.167969 70.417969 C 56.046875 75.355469 48.003906 75.355469 42.882812 70.417969 C 41.007812 68.613281 39.316406 66.441406 37.855469 63.949219 C 37.398438 63.171875 36.964844 62.371094 36.574219 61.527344 C 36.003906 60.339844 34.5625 59.835938 33.375 60.429688 C 32.1875 61 31.683594 62.441406 32.277344 63.628906 C 32.714844 64.519531 33.171875 65.390625 33.671875 66.234375 C 35.363281 69.160156 37.351562 71.71875 39.59375 73.867188 C 42.378906 76.566406 45.898438 78.234375 49.671875 78.738281 L 49.671875 88.90625 C 49.671875 89.316406 49.671875 89.707031 49.695312 90.117188 C 50.332031 105.132812 62.742188 117.15625 77.894531 117.15625 C 93.460938 117.15625 106.121094 104.492188 106.121094 88.929688 L 106.121094 76.175781 C 109.089844 75.148438 111.261719 72.316406 111.261719 68.976562 Z M 103.699219 73.183594 C 101.390625 73.183594 99.492188 71.308594 99.492188 68.976562 C 99.492188 66.648438 101.367188 64.773438 103.699219 64.773438 C 106.007812 64.773438 107.902344 66.648438 107.902344 68.976562 C 107.902344 71.308594 106.007812 73.183594 103.699219 73.183594 Z M 103.699219 73.183594 " fill-opacity="1" fill-rule="nonzero"/></g><path fill="#55e2d2" d="M 103.699219 66.601562 C 102.394531 66.601562 101.34375 67.652344 101.34375 68.953125 C 101.34375 70.257812 102.394531 71.308594 103.699219 71.308594 C 105 71.308594 106.050781 70.257812 106.050781 68.953125 C 106.050781 67.652344 105 66.601562 103.699219 66.601562 Z M 103.699219 69.984375 C 103.148438 69.984375 102.691406 69.527344 102.691406 68.976562 C 102.691406 68.429688 103.148438 67.972656 103.699219 67.972656 C 104.246094 67.972656 104.703125 68.429688 104.703125 68.976562 C 104.703125 69.527344 104.246094 69.984375 103.699219 69.984375 Z M 103.699219 69.984375 " fill-opacity="1" fill-rule="nonzero"/><path fill="#55e2d2" d="M 34.289062 58.921875 C 32.78125 55.082031 31.707031 50.761719 31.066406 46.03125 C 30.632812 42.421875 31.410156 39.519531 33.375 37.371094 C 35.386719 35.152344 38.359375 34.058594 40.917969 33.484375 C 41.535156 34.355469 42.539062 34.925781 43.683594 34.925781 C 45.535156 34.925781 47.042969 33.417969 47.042969 31.566406 C 47.042969 29.714844 45.535156 28.207031 43.683594 28.207031 C 42.082031 28.207031 40.757812 29.304688 40.414062 30.789062 C 37.421875 31.429688 33.878906 32.753906 31.363281 35.496094 C 28.851562 38.261719 27.824219 41.894531 28.347656 46.328125 L 28.347656 46.351562 C 29.011719 51.335938 30.152344 55.90625 31.777344 59.972656 C 32.417969 59.355469 33.308594 58.945312 34.289062 58.921875 Z M 34.289062 58.921875 " fill-opacity="1" fill-rule="nonzero"/><path fill="#55e2d2" d="M 72.226562 60.019531 C 73.828125 55.949219 74.992188 51.378906 75.65625 46.375 L 75.65625 46.351562 C 76.183594 41.917969 75.175781 38.261719 72.640625 35.519531 C 70.125 32.777344 66.582031 31.453125 63.589844 30.8125 C 63.246094 29.324219 61.898438 28.230469 60.320312 28.230469 C 58.46875 28.230469 56.960938 29.738281 56.960938 31.589844 C 56.960938 33.441406 58.46875 34.949219 60.320312 34.949219 C 61.464844 34.949219 62.46875 34.375 63.085938 33.507812 C 65.644531 34.058594 68.617188 35.175781 70.628906 37.394531 C 72.570312 39.542969 73.347656 42.445312 72.9375 46.054688 C 72.296875 50.785156 71.222656 55.105469 69.714844 58.945312 C 70.695312 58.945312 71.589844 59.355469 72.226562 60.019531 Z M 72.226562 60.019531 " fill-opacity="1" fill-rule="nonzero"/><path fill="#ffa9c6" d="M 43.820312 47.882812 L 51.386719 47.882812 L 51.386719 40.320312 C 47.203125 40.320312 43.820312 43.703125 43.820312 47.882812 Z M 43.820312 47.882812 " fill-opacity="1" fill-rule="nonzero"/><path fill="#ffa9c6" d="M 43.820312 49.597656 L 51.386719 49.597656 L 51.386719 57.164062 L 43.820312 57.164062 Z M 43.820312 49.597656 " fill-opacity="1" fill-rule="nonzero"/><path fill="#ffa9c6" d="M 52.960938 40.320312 L 52.960938 47.882812 L 60.527344 47.882812 C 60.527344 43.703125 57.144531 40.320312 52.960938 40.320312 Z M 52.960938 40.320312 " fill-opacity="1" fill-rule="nonzero"/><path fill="#ffa9c6" d="M 52.960938 49.597656 L 60.527344 49.597656 L 60.527344 57.164062 L 52.960938 57.164062 Z M 52.960938 49.597656 " fill-opacity="1" fill-rule="nonzero"/><g fill="#55e2d2" fill-opacity="1"><g transform="translate(116.155837, 58.887185)"><g><path d="M 22.78125 -5.65625 L 10.8125 -5.65625 L 8.90625 0 L 0.734375 0 L 12.328125 -32.046875 L 21.359375 -32.046875 L 32.953125 0 L 24.6875 0 Z M 20.765625 -11.6875 L 16.796875 -23.40625 L 12.875 -11.6875 Z M 20.765625 -11.6875 "/></g></g></g><g fill="#55e2d2" fill-opacity="1"><g transform="translate(149.779352, 58.887185)"><g><path d="M 23.6875 -32.046875 L 23.6875 -25.78125 L 10.640625 -25.78125 L 10.640625 -19.03125 L 20.40625 -19.03125 L 20.40625 -12.96875 L 10.640625 -12.96875 L 10.640625 0 L 2.828125 0 L 2.828125 -32.046875 Z M 23.6875 -32.046875 "/></g></g></g><g fill="#55e2d2" fill-opacity="1"><g transform="translate(174.734663, 58.887185)"><g><path d="M 10.640625 -25.78125 L 10.640625 -19.3125 L 21.09375 -19.3125 L 21.09375 -13.28125 L 10.640625 -13.28125 L 10.640625 -6.25 L 22.453125 -6.25 L 22.453125 0 L 2.828125 0 L 2.828125 -32.046875 L 22.453125 -32.046875 L 22.453125 -25.78125 Z M 10.640625 -25.78125 "/></g></g></g><g fill="#55e2d2" fill-opacity="1"><g transform="translate(199.416237, 58.887185)"><g><path d="M 1.5 -16.0625 C 1.5 -19.226562 2.179688 -22.050781 3.546875 -24.53125 C 4.921875 -27.007812 6.832031 -28.941406 9.28125 -30.328125 C 11.738281 -31.710938 14.519531 -32.40625 17.625 -32.40625 C 21.425781 -32.40625 24.679688 -31.398438 27.390625 -29.390625 C 30.097656 -27.378906 31.90625 -24.640625 32.8125 -21.171875 L 24.234375 -21.171875 C 23.597656 -22.515625 22.691406 -23.535156 21.515625 -24.234375 C 20.347656 -24.929688 19.019531 -25.28125 17.53125 -25.28125 C 15.125 -25.28125 13.175781 -24.441406 11.6875 -22.765625 C 10.195312 -21.097656 9.453125 -18.863281 9.453125 -16.0625 C 9.453125 -13.257812 10.195312 -11.019531 11.6875 -9.34375 C 13.175781 -7.675781 15.125 -6.84375 17.53125 -6.84375 C 19.019531 -6.84375 20.347656 -7.191406 21.515625 -7.890625 C 22.691406 -8.597656 23.597656 -9.617188 24.234375 -10.953125 L 32.8125 -10.953125 C 31.90625 -7.484375 30.097656 -4.75 27.390625 -2.75 C 24.679688 -0.757812 21.425781 0.234375 17.625 0.234375 C 14.519531 0.234375 11.738281 -0.457031 9.28125 -1.84375 C 6.832031 -3.226562 4.921875 -5.148438 3.546875 -7.609375 C 2.179688 -10.078125 1.5 -12.894531 1.5 -16.0625 Z M 1.5 -16.0625 "/></g></g></g><g fill="#55e2d2" fill-opacity="1"><g transform="translate(234.180299, 58.887185)"><g><path d="M 25.875 -32.046875 L 25.875 -25.78125 L 17.390625 -25.78125 L 17.390625 0 L 9.578125 0 L 9.578125 -25.78125 L 1.09375 -25.78125 L 1.09375 -32.046875 Z M 25.875 -32.046875 "/></g></g></g><g fill="#55e2d2" fill-opacity="1"><g transform="translate(261.142982, 58.887185)"><g><path d="M 17.984375 0.3125 C 14.972656 0.3125 12.210938 -0.382812 9.703125 -1.78125 C 7.191406 -3.175781 5.195312 -5.128906 3.71875 -7.640625 C 2.238281 -10.148438 1.5 -12.972656 1.5 -16.109375 C 1.5 -19.242188 2.238281 -22.054688 3.71875 -24.546875 C 5.195312 -27.046875 7.191406 -28.992188 9.703125 -30.390625 C 12.210938 -31.796875 14.972656 -32.5 17.984375 -32.5 C 20.992188 -32.5 23.753906 -31.796875 26.265625 -30.390625 C 28.773438 -28.992188 30.753906 -27.046875 32.203125 -24.546875 C 33.648438 -22.054688 34.375 -19.242188 34.375 -16.109375 C 34.375 -12.972656 33.640625 -10.148438 32.171875 -7.640625 C 30.710938 -5.128906 28.734375 -3.175781 26.234375 -1.78125 C 23.742188 -0.382812 20.992188 0.3125 17.984375 0.3125 Z M 17.984375 -6.796875 C 20.535156 -6.796875 22.578125 -7.644531 24.109375 -9.34375 C 25.648438 -11.050781 26.421875 -13.304688 26.421875 -16.109375 C 26.421875 -18.941406 25.648438 -21.203125 24.109375 -22.890625 C 22.578125 -24.578125 20.535156 -25.421875 17.984375 -25.421875 C 15.398438 -25.421875 13.335938 -24.582031 11.796875 -22.90625 C 10.265625 -21.238281 9.5 -18.972656 9.5 -16.109375 C 9.5 -13.273438 10.265625 -11.015625 11.796875 -9.328125 C 13.335938 -7.640625 15.398438 -6.796875 17.984375 -6.796875 Z M 17.984375 -6.796875 "/></g></g></g><g fill="#ffa9c6" fill-opacity="1"><g transform="translate(116.240512, 85.216577)"><g><path d="M 4 -12.765625 L 4 -8.453125 L 9.078125 -8.453125 L 9.078125 -6.484375 L 4 -6.484375 L 4 -1.96875 L 9.71875 -1.96875 L 9.71875 0 L 1.59375 0 L 1.59375 -14.734375 L 9.71875 -14.734375 L 9.71875 -12.765625 Z M 4 -12.765625 "/></g></g></g><g fill="#ffa9c6" fill-opacity="1"><g transform="translate(127.326621, 85.216577)"><g><path d="M 7.46875 -11.859375 C 8.382812 -11.859375 9.207031 -11.664062 9.9375 -11.28125 C 10.664062 -10.90625 11.234375 -10.34375 11.640625 -9.59375 C 12.054688 -8.84375 12.265625 -7.9375 12.265625 -6.875 L 12.265625 0 L 9.859375 0 L 9.859375 -6.515625 C 9.859375 -7.566406 9.597656 -8.367188 9.078125 -8.921875 C 8.554688 -9.484375 7.84375 -9.765625 6.9375 -9.765625 C 6.039062 -9.765625 5.328125 -9.484375 4.796875 -8.921875 C 4.265625 -8.367188 4 -7.566406 4 -6.515625 L 4 0 L 1.59375 0 L 1.59375 -11.671875 L 4 -11.671875 L 4 -10.328125 C 4.394531 -10.804688 4.898438 -11.179688 5.515625 -11.453125 C 6.128906 -11.722656 6.78125 -11.859375 7.46875 -11.859375 Z M 7.46875 -11.859375 "/></g></g></g><g fill="#ffa9c6" fill-opacity="1"><g transform="translate(141.057314, 85.216577)"><g><path d="M 6.484375 -9.703125 L 4.3125 -9.703125 L 4.3125 0 L 1.890625 0 L 1.890625 -9.703125 L 0.515625 -9.703125 L 0.515625 -11.671875 L 1.890625 -11.671875 L 1.890625 -12.484375 C 1.890625 -13.828125 2.242188 -14.804688 2.953125 -15.421875 C 3.660156 -16.035156 4.78125 -16.34375 6.3125 -16.34375 L 6.3125 -14.328125 C 5.570312 -14.328125 5.050781 -14.1875 4.75 -13.90625 C 4.457031 -13.632812 4.3125 -13.160156 4.3125 -12.484375 L 4.3125 -11.671875 L 6.484375 -11.671875 Z M 6.484375 -9.703125 "/></g></g></g><g fill="#ffa9c6" fill-opacity="1"><g transform="translate(148.081339, 85.216577)"><g><path d="M 12.28125 -6.125 C 12.28125 -5.6875 12.25 -5.289062 12.1875 -4.9375 L 3.28125 -4.9375 C 3.351562 -4 3.695312 -3.25 4.3125 -2.6875 C 4.9375 -2.125 5.703125 -1.84375 6.609375 -1.84375 C 7.898438 -1.84375 8.816406 -2.382812 9.359375 -3.46875 L 11.96875 -3.46875 C 11.613281 -2.394531 10.972656 -1.515625 10.046875 -0.828125 C 9.117188 -0.148438 7.972656 0.1875 6.609375 0.1875 C 5.492188 0.1875 4.492188 -0.0625 3.609375 -0.5625 C 2.722656 -1.0625 2.03125 -1.765625 1.53125 -2.671875 C 1.03125 -3.585938 0.78125 -4.644531 0.78125 -5.84375 C 0.78125 -7.039062 1.023438 -8.09375 1.515625 -9 C 2.003906 -9.914062 2.6875 -10.617188 3.5625 -11.109375 C 4.445312 -11.609375 5.460938 -11.859375 6.609375 -11.859375 C 7.703125 -11.859375 8.679688 -11.617188 9.546875 -11.140625 C 10.410156 -10.660156 11.082031 -9.984375 11.5625 -9.109375 C 12.039062 -8.242188 12.28125 -7.25 12.28125 -6.125 Z M 9.765625 -6.875 C 9.742188 -7.769531 9.421875 -8.484375 8.796875 -9.015625 C 8.179688 -9.554688 7.414062 -9.828125 6.5 -9.828125 C 5.664062 -9.828125 4.953125 -9.5625 4.359375 -9.03125 C 3.765625 -8.5 3.410156 -7.78125 3.296875 -6.875 Z M 9.765625 -6.875 "/></g></g></g><g fill="#ffa9c6" fill-opacity="1"><g transform="translate(161.135018, 85.216577)"><g><path d="M 4 -9.96875 C 4.351562 -10.5625 4.820312 -11.023438 5.40625 -11.359375 C 5.988281 -11.691406 6.6875 -11.859375 7.5 -11.859375 L 7.5 -9.359375 L 6.875 -9.359375 C 5.9375 -9.359375 5.222656 -9.117188 4.734375 -8.640625 C 4.242188 -8.160156 4 -7.328125 4 -6.140625 L 4 0 L 1.59375 0 L 1.59375 -11.671875 L 4 -11.671875 Z M 4 -9.96875 "/></g></g></g><g fill="#ffa9c6" fill-opacity="1"><g transform="translate(169.259185, 85.216577)"><g><path d="M 15.703125 -11.859375 C 16.617188 -11.859375 17.441406 -11.664062 18.171875 -11.28125 C 18.898438 -10.90625 19.472656 -10.34375 19.890625 -9.59375 C 20.304688 -8.84375 20.515625 -7.9375 20.515625 -6.875 L 20.515625 0 L 18.125 0 L 18.125 -6.515625 C 18.125 -7.566406 17.863281 -8.367188 17.34375 -8.921875 C 16.820312 -9.484375 16.109375 -9.765625 15.203125 -9.765625 C 14.296875 -9.765625 13.578125 -9.484375 13.046875 -8.921875 C 12.523438 -8.367188 12.265625 -7.566406 12.265625 -6.515625 L 12.265625 0 L 9.859375 0 L 9.859375 -6.515625 C 9.859375 -7.566406 9.597656 -8.367188 9.078125 -8.921875 C 8.554688 -9.484375 7.84375 -9.765625 6.9375 -9.765625 C 6.039062 -9.765625 5.328125 -9.484375 4.796875 -8.921875 C 4.265625 -8.367188 4 -7.566406 4 -6.515625 L 4 0 L 1.59375 0 L 1.59375 -11.671875 L 4 -11.671875 L 4 -10.328125 C 4.394531 -10.804688 4.894531 -11.179688 5.5 -11.453125 C 6.113281 -11.722656 6.765625 -11.859375 7.453125 -11.859375 C 8.378906 -11.859375 9.207031 -11.660156 9.9375 -11.265625 C 10.675781 -10.867188 11.242188 -10.296875 11.640625 -9.546875 C 11.992188 -10.253906 12.546875 -10.816406 13.296875 -11.234375 C 14.046875 -11.648438 14.847656 -11.859375 15.703125 -11.859375 Z M 15.703125 -11.859375 "/></g></g></g><g fill="#ffa9c6" fill-opacity="1"><g transform="translate(191.240989, 85.216577)"><g><path d="M 0.78125 -5.890625 C 0.78125 -7.054688 1.023438 -8.09375 1.515625 -9 C 2.003906 -9.90625 2.664062 -10.609375 3.5 -11.109375 C 4.34375 -11.609375 5.269531 -11.859375 6.28125 -11.859375 C 7.207031 -11.859375 8.007812 -11.675781 8.6875 -11.3125 C 9.375 -10.957031 9.921875 -10.507812 10.328125 -9.96875 L 10.328125 -11.671875 L 12.765625 -11.671875 L 12.765625 0 L 10.328125 0 L 10.328125 -1.734375 C 9.921875 -1.179688 9.363281 -0.722656 8.65625 -0.359375 C 7.945312 0.00390625 7.144531 0.1875 6.25 0.1875 C 5.25 0.1875 4.332031 -0.0664062 3.5 -0.578125 C 2.664062 -1.097656 2.003906 -1.816406 1.515625 -2.734375 C 1.023438 -3.660156 0.78125 -4.710938 0.78125 -5.890625 Z M 10.328125 -5.84375 C 10.328125 -6.644531 10.160156 -7.34375 9.828125 -7.9375 C 9.503906 -8.53125 9.070312 -8.984375 8.53125 -9.296875 C 8 -9.609375 7.421875 -9.765625 6.796875 -9.765625 C 6.171875 -9.765625 5.585938 -9.609375 5.046875 -9.296875 C 4.515625 -8.992188 4.082031 -8.550781 3.75 -7.96875 C 3.425781 -7.382812 3.265625 -6.691406 3.265625 -5.890625 C 3.265625 -5.078125 3.425781 -4.367188 3.75 -3.765625 C 4.082031 -3.160156 4.519531 -2.695312 5.0625 -2.375 C 5.613281 -2.0625 6.191406 -1.90625 6.796875 -1.90625 C 7.421875 -1.90625 8 -2.0625 8.53125 -2.375 C 9.070312 -2.6875 9.503906 -3.140625 9.828125 -3.734375 C 10.160156 -4.335938 10.328125 -5.039062 10.328125 -5.84375 Z M 10.328125 -5.84375 "/></g></g></g><g fill="#ffa9c6" fill-opacity="1"><g transform="translate(205.585225, 85.216577)"><g><path d="M 6.28125 -11.859375 C 7.1875 -11.859375 7.988281 -11.675781 8.6875 -11.3125 C 9.382812 -10.957031 9.929688 -10.507812 10.328125 -9.96875 L 10.328125 -11.671875 L 12.765625 -11.671875 L 12.765625 0.1875 C 12.765625 1.257812 12.535156 2.210938 12.078125 3.046875 C 11.628906 3.890625 10.976562 4.550781 10.125 5.03125 C 9.269531 5.519531 8.253906 5.765625 7.078125 5.765625 C 5.492188 5.765625 4.175781 5.390625 3.125 4.640625 C 2.082031 3.898438 1.492188 2.894531 1.359375 1.625 L 3.75 1.625 C 3.925781 2.238281 4.316406 2.726562 4.921875 3.09375 C 5.523438 3.46875 6.242188 3.65625 7.078125 3.65625 C 8.046875 3.65625 8.828125 3.359375 9.421875 2.765625 C 10.023438 2.179688 10.328125 1.320312 10.328125 0.1875 L 10.328125 -1.75 C 9.921875 -1.207031 9.367188 -0.75 8.671875 -0.375 C 7.972656 0 7.175781 0.1875 6.28125 0.1875 C 5.269531 0.1875 4.34375 -0.0664062 3.5 -0.578125 C 2.664062 -1.097656 2.003906 -1.816406 1.515625 -2.734375 C 1.023438 -3.660156 0.78125 -4.710938 0.78125 -5.890625 C 0.78125 -7.054688 1.023438 -8.09375 1.515625 -9 C 2.003906 -9.90625 2.664062 -10.609375 3.5 -11.109375 C 4.34375 -11.609375 5.269531 -11.859375 6.28125 -11.859375 Z M 10.328125 -5.84375 C 10.328125 -6.644531 10.160156 -7.34375 9.828125 -7.9375 C 9.503906 -8.53125 9.070312 -8.984375 8.53125 -9.296875 C 8 -9.609375 7.421875 -9.765625 6.796875 -9.765625 C 6.171875 -9.765625 5.585938 -9.609375 5.046875 -9.296875 C 4.515625 -8.992188 4.082031 -8.550781 3.75 -7.96875 C 3.425781 -7.382812 3.265625 -6.691406 3.265625 -5.890625 C 3.265625 -5.078125 3.425781 -4.367188 3.75 -3.765625 C 4.082031 -3.160156 4.519531 -2.695312 5.0625 -2.375 C 5.613281 -2.0625 6.191406 -1.90625 6.796875 -1.90625 C 7.421875 -1.90625 8 -2.0625 8.53125 -2.375 C 9.070312 -2.6875 9.503906 -3.140625 9.828125 -3.734375 C 10.160156 -4.335938 10.328125 -5.039062 10.328125 -5.84375 Z M 10.328125 -5.84375 "/></g></g></g><g fill="#ffa9c6" fill-opacity="1"><g transform="translate(219.929461, 85.216577)"><g><path d="M 12.28125 -6.125 C 12.28125 -5.6875 12.25 -5.289062 12.1875 -4.9375 L 3.28125 -4.9375 C 3.351562 -4 3.695312 -3.25 4.3125 -2.6875 C 4.9375 -2.125 5.703125 -1.84375 6.609375 -1.84375 C 7.898438 -1.84375 8.816406 -2.382812 9.359375 -3.46875 L 11.96875 -3.46875 C 11.613281 -2.394531 10.972656 -1.515625 10.046875 -0.828125 C 9.117188 -0.148438 7.972656 0.1875 6.609375 0.1875 C 5.492188 0.1875 4.492188 -0.0625 3.609375 -0.5625 C 2.722656 -1.0625 2.03125 -1.765625 1.53125 -2.671875 C 1.03125 -3.585938 0.78125 -4.644531 0.78125 -5.84375 C 0.78125 -7.039062 1.023438 -8.09375 1.515625 -9 C 2.003906 -9.914062 2.6875 -10.617188 3.5625 -11.109375 C 4.445312 -11.609375 5.460938 -11.859375 6.609375 -11.859375 C 7.703125 -11.859375 8.679688 -11.617188 9.546875 -11.140625 C 10.410156 -10.660156 11.082031 -9.984375 11.5625 -9.109375 C 12.039062 -8.242188 12.28125 -7.25 12.28125 -6.125 Z M 9.765625 -6.875 C 9.742188 -7.769531 9.421875 -8.484375 8.796875 -9.015625 C 8.179688 -9.554688 7.414062 -9.828125 6.5 -9.828125 C 5.664062 -9.828125 4.953125 -9.5625 4.359375 -9.03125 C 3.765625 -8.5 3.410156 -7.78125 3.296875 -6.875 Z M 9.765625 -6.875 "/></g></g></g><g fill="#ffa9c6" fill-opacity="1"><g transform="translate(232.98314, 85.216577)"><g><path d="M 15.703125 -11.859375 C 16.617188 -11.859375 17.441406 -11.664062 18.171875 -11.28125 C 18.898438 -10.90625 19.472656 -10.34375 19.890625 -9.59375 C 20.304688 -8.84375 20.515625 -7.9375 20.515625 -6.875 L 20.515625 0 L 18.125 0 L 18.125 -6.515625 C 18.125 -7.566406 17.863281 -8.367188 17.34375 -8.921875 C 16.820312 -9.484375 16.109375 -9.765625 15.203125 -9.765625 C 14.296875 -9.765625 13.578125 -9.484375 13.046875 -8.921875 C 12.523438 -8.367188 12.265625 -7.566406 12.265625 -6.515625 L 12.265625 0 L 9.859375 0 L 9.859375 -6.515625 C 9.859375 -7.566406 9.597656 -8.367188 9.078125 -8.921875 C 8.554688 -9.484375 7.84375 -9.765625 6.9375 -9.765625 C 6.039062 -9.765625 5.328125 -9.484375 4.796875 -8.921875 C 4.265625 -8.367188 4 -7.566406 4 -6.515625 L 4 0 L 1.59375 0 L 1.59375 -11.671875 L 4 -11.671875 L 4 -10.328125 C 4.394531 -10.804688 4.894531 -11.179688 5.5 -11.453125 C 6.113281 -11.722656 6.765625 -11.859375 7.453125 -11.859375 C 8.378906 -11.859375 9.207031 -11.660156 9.9375 -11.265625 C 10.675781 -10.867188 11.242188 -10.296875 11.640625 -9.546875 C 11.992188 -10.253906 12.546875 -10.816406 13.296875 -11.234375 C 14.046875 -11.648438 14.847656 -11.859375 15.703125 -11.859375 Z M 15.703125 -11.859375 "/></g></g></g><g fill="#ffa9c6" fill-opacity="1"><g transform="translate(254.964943, 85.216577)"><g/></g></g><g fill="#ffa9c6" fill-opacity="1"><g transform="translate(260.465683, 85.216577)"><g><path d="M 6.390625 -14.71875 C 7.960938 -14.71875 9.335938 -14.414062 10.515625 -13.8125 C 11.691406 -13.21875 12.597656 -12.359375 13.234375 -11.234375 C 13.878906 -10.109375 14.203125 -8.796875 14.203125 -7.296875 C 14.203125 -5.804688 13.878906 -4.507812 13.234375 -3.40625 C 12.597656 -2.300781 11.691406 -1.457031 10.515625 -0.875 C 9.335938 -0.289062 7.960938 0 6.390625 0 L 1.59375 0 L 1.59375 -14.71875 Z M 6.390625 -1.96875 C 8.117188 -1.96875 9.441406 -2.429688 10.359375 -3.359375 C 11.273438 -4.296875 11.734375 -5.609375 11.734375 -7.296875 C 11.734375 -9.003906 11.273438 -10.335938 10.359375 -11.296875 C 9.441406 -12.265625 8.117188 -12.75 6.390625 -12.75 L 4 -12.75 L 4 -1.96875 Z M 6.390625 -1.96875 "/></g></g></g><g fill="#ffa9c6" fill-opacity="1"><g transform="translate(275.465776, 85.216577)"><g><path d="M 6.640625 0.1875 C 5.546875 0.1875 4.550781 -0.0625 3.65625 -0.5625 C 2.769531 -1.0625 2.070312 -1.765625 1.5625 -2.671875 C 1.050781 -3.585938 0.796875 -4.644531 0.796875 -5.84375 C 0.796875 -7.03125 1.054688 -8.082031 1.578125 -9 C 2.109375 -9.914062 2.820312 -10.617188 3.71875 -11.109375 C 4.625 -11.609375 5.632812 -11.859375 6.75 -11.859375 C 7.863281 -11.859375 8.875 -11.609375 9.78125 -11.109375 C 10.6875 -10.617188 11.398438 -9.914062 11.921875 -9 C 12.441406 -8.082031 12.703125 -7.03125 12.703125 -5.84375 C 12.703125 -4.65625 12.429688 -3.601562 11.890625 -2.6875 C 11.359375 -1.769531 10.628906 -1.0625 9.703125 -0.5625 C 8.785156 -0.0625 7.765625 0.1875 6.640625 0.1875 Z M 6.640625 -1.90625 C 7.265625 -1.90625 7.847656 -2.050781 8.390625 -2.34375 C 8.929688 -2.644531 9.367188 -3.09375 9.703125 -3.6875 C 10.046875 -4.28125 10.21875 -5 10.21875 -5.84375 C 10.21875 -6.6875 10.054688 -7.398438 9.734375 -7.984375 C 9.410156 -8.578125 8.976562 -9.019531 8.4375 -9.3125 C 7.90625 -9.613281 7.332031 -9.765625 6.71875 -9.765625 C 6.09375 -9.765625 5.515625 -9.613281 4.984375 -9.3125 C 4.453125 -9.019531 4.03125 -8.578125 3.71875 -7.984375 C 3.414062 -7.398438 3.265625 -6.6875 3.265625 -5.84375 C 3.265625 -4.582031 3.582031 -3.609375 4.21875 -2.921875 C 4.863281 -2.242188 5.671875 -1.90625 6.640625 -1.90625 Z M 6.640625 -1.90625 "/></g></g></g><g fill="#ffa9c6" fill-opacity="1"><g transform="translate(288.963742, 85.216577)"><g><path d="M 15.703125 -11.859375 C 16.617188 -11.859375 17.441406 -11.664062 18.171875 -11.28125 C 18.898438 -10.90625 19.472656 -10.34375 19.890625 -9.59375 C 20.304688 -8.84375 20.515625 -7.9375 20.515625 -6.875 L 20.515625 0 L 18.125 0 L 18.125 -6.515625 C 18.125 -7.566406 17.863281 -8.367188 17.34375 -8.921875 C 16.820312 -9.484375 16.109375 -9.765625 15.203125 -9.765625 C 14.296875 -9.765625 13.578125 -9.484375 13.046875 -8.921875 C 12.523438 -8.367188 12.265625 -7.566406 12.265625 -6.515625 L 12.265625 0 L 9.859375 0 L 9.859375 -6.515625 C 9.859375 -7.566406 9.597656 -8.367188 9.078125 -8.921875 C 8.554688 -9.484375 7.84375 -9.765625 6.9375 -9.765625 C 6.039062 -9.765625 5.328125 -9.484375 4.796875 -8.921875 C 4.265625 -8.367188 4 -7.566406 4 -6.515625 L 4 0 L 1.59375 0 L 1.59375 -11.671875 L 4 -11.671875 L 4 -10.328125 C 4.394531 -10.804688 4.894531 -11.179688 5.5 -11.453125 C 6.113281 -11.722656 6.765625 -11.859375 7.453125 -11.859375 C 8.378906 -11.859375 9.207031 -11.660156 9.9375 -11.265625 C 10.675781 -10.867188 11.242188 -10.296875 11.640625 -9.546875 C 11.992188 -10.253906 12.546875 -10.816406 13.296875 -11.234375 C 14.046875 -11.648438 14.847656 -11.859375 15.703125 -11.859375 Z M 15.703125 -11.859375 "/></g></g></g><g fill="#ffa9c6" fill-opacity="1"><g transform="translate(310.945545, 85.216577)"><g><path d="M 2.8125 -13.21875 C 2.375 -13.21875 2.003906 -13.363281 1.703125 -13.65625 C 1.410156 -13.945312 1.265625 -14.3125 1.265625 -14.75 C 1.265625 -15.1875 1.410156 -15.550781 1.703125 -15.84375 C 2.003906 -16.144531 2.375 -16.296875 2.8125 -16.296875 C 3.238281 -16.296875 3.597656 -16.144531 3.890625 -15.84375 C 4.191406 -15.550781 4.34375 -15.1875 4.34375 -14.75 C 4.34375 -14.3125 4.191406 -13.945312 3.890625 -13.65625 C 3.597656 -13.363281 3.238281 -13.21875 2.8125 -13.21875 Z M 4 -11.671875 L 4 0 L 1.59375 0 L 1.59375 -11.671875 Z M 4 -11.671875 "/></g></g></g><g fill="#ffa9c6" fill-opacity="1"><g transform="translate(316.530901, 85.216577)"><g><path d="M 0.78125 -5.84375 C 0.78125 -7.039062 1.023438 -8.09375 1.515625 -9 C 2.003906 -9.914062 2.675781 -10.617188 3.53125 -11.109375 C 4.394531 -11.609375 5.382812 -11.859375 6.5 -11.859375 C 7.90625 -11.859375 9.070312 -11.519531 10 -10.84375 C 10.925781 -10.175781 11.550781 -9.222656 11.875 -7.984375 L 9.265625 -7.984375 C 9.054688 -8.554688 8.71875 -9.003906 8.25 -9.328125 C 7.789062 -9.660156 7.207031 -9.828125 6.5 -9.828125 C 5.507812 -9.828125 4.722656 -9.476562 4.140625 -8.78125 C 3.554688 -8.082031 3.265625 -7.101562 3.265625 -5.84375 C 3.265625 -4.582031 3.554688 -3.597656 4.140625 -2.890625 C 4.722656 -2.191406 5.507812 -1.84375 6.5 -1.84375 C 7.894531 -1.84375 8.816406 -2.457031 9.265625 -3.6875 L 11.875 -3.6875 C 11.539062 -2.5 10.90625 -1.554688 9.96875 -0.859375 C 9.039062 -0.160156 7.882812 0.1875 6.5 0.1875 C 5.382812 0.1875 4.394531 -0.0625 3.53125 -0.5625 C 2.675781 -1.0625 2.003906 -1.765625 1.515625 -2.671875 C 1.023438 -3.585938 0.78125 -4.644531 0.78125 -5.84375 Z M 0.78125 -5.84375 "/></g></g></g><g fill="#ffa9c6" fill-opacity="1"><g transform="translate(329.224899, 85.216577)"><g><path d="M 2.8125 -13.21875 C 2.375 -13.21875 2.003906 -13.363281 1.703125 -13.65625 C 1.410156 -13.945312 1.265625 -14.3125 1.265625 -14.75 C 1.265625 -15.1875 1.410156 -15.550781 1.703125 -15.84375 C 2.003906 -16.144531 2.375 -16.296875 2.8125 -16.296875 C 3.238281 -16.296875 3.597656 -16.144531 3.890625 -15.84375 C 4.191406 -15.550781 4.34375 -15.1875 4.34375 -14.75 C 4.34375 -14.3125 4.191406 -13.945312 3.890625 -13.65625 C 3.597656 -13.363281 3.238281 -13.21875 2.8125 -13.21875 Z M 4 -11.671875 L 4 0 L 1.59375 0 L 1.59375 -11.671875 Z M 4 -11.671875 "/></g></g></g><g fill="#ffa9c6" fill-opacity="1"><g transform="translate(334.810267, 85.216577)"><g><path d="M 4 -15.671875 L 4 0 L 1.59375 0 L 1.59375 -15.671875 Z M 4 -15.671875 "/></g></g></g><g fill="#ffa9c6" fill-opacity="1"><g transform="translate(340.395635, 85.216577)"><g><path d="M 2.8125 -13.21875 C 2.375 -13.21875 2.003906 -13.363281 1.703125 -13.65625 C 1.410156 -13.945312 1.265625 -14.3125 1.265625 -14.75 C 1.265625 -15.1875 1.410156 -15.550781 1.703125 -15.84375 C 2.003906 -16.144531 2.375 -16.296875 2.8125 -16.296875 C 3.238281 -16.296875 3.597656 -16.144531 3.890625 -15.84375 C 4.191406 -15.550781 4.34375 -15.1875 4.34375 -14.75 C 4.34375 -14.3125 4.191406 -13.945312 3.890625 -13.65625 C 3.597656 -13.363281 3.238281 -13.21875 2.8125 -13.21875 Z M 4 -11.671875 L 4 0 L 1.59375 0 L 1.59375 -11.671875 Z M 4 -11.671875 "/></g></g></g><g fill="#ffa9c6" fill-opacity="1"><g transform="translate(345.981004, 85.216577)"><g><path d="M 0.78125 -5.890625 C 0.78125 -7.054688 1.023438 -8.09375 1.515625 -9 C 2.003906 -9.90625 2.664062 -10.609375 3.5 -11.109375 C 4.34375 -11.609375 5.269531 -11.859375 6.28125 -11.859375 C 7.207031 -11.859375 8.007812 -11.675781 8.6875 -11.3125 C 9.375 -10.957031 9.921875 -10.507812 10.328125 -9.96875 L 10.328125 -11.671875 L 12.765625 -11.671875 L 12.765625 0 L 10.328125 0 L 10.328125 -1.734375 C 9.921875 -1.179688 9.363281 -0.722656 8.65625 -0.359375 C 7.945312 0.00390625 7.144531 0.1875 6.25 0.1875 C 5.25 0.1875 4.332031 -0.0664062 3.5 -0.578125 C 2.664062 -1.097656 2.003906 -1.816406 1.515625 -2.734375 C 1.023438 -3.660156 0.78125 -4.710938 0.78125 -5.890625 Z M 10.328125 -5.84375 C 10.328125 -6.644531 10.160156 -7.34375 9.828125 -7.9375 C 9.503906 -8.53125 9.070312 -8.984375 8.53125 -9.296875 C 8 -9.609375 7.421875 -9.765625 6.796875 -9.765625 C 6.171875 -9.765625 5.585938 -9.609375 5.046875 -9.296875 C 4.515625 -8.992188 4.082031 -8.550781 3.75 -7.96875 C 3.425781 -7.382812 3.265625 -6.691406 3.265625 -5.890625 C 3.265625 -5.078125 3.425781 -4.367188 3.75 -3.765625 C 4.082031 -3.160156 4.519531 -2.695312 5.0625 -2.375 C 5.613281 -2.0625 6.191406 -1.90625 6.796875 -1.90625 C 7.421875 -1.90625 8 -2.0625 8.53125 -2.375 C 9.070312 -2.6875 9.503906 -3.140625 9.828125 -3.734375 C 10.160156 -4.335938 10.328125 -5.039062 10.328125 -5.84375 Z M 10.328125 -5.84375 "/></g></g></g><g fill="#ffa9c6" fill-opacity="1"><g transform="translate(360.325228, 85.216577)"><g><path d="M 4 -9.96875 C 4.351562 -10.5625 4.820312 -11.023438 5.40625 -11.359375 C 5.988281 -11.691406 6.6875 -11.859375 7.5 -11.859375 L 7.5 -9.359375 L 6.875 -9.359375 C 5.9375 -9.359375 5.222656 -9.117188 4.734375 -8.640625 C 4.242188 -8.160156 4 -7.328125 4 -6.140625 L 4 0 L 1.59375 0 L 1.59375 -11.671875 L 4 -11.671875 Z M 4 -9.96875 "/></g></g></g></svg>