<svg xmlns="http://www.w3.org/2000/svg" xmlns:xlink="http://www.w3.org/1999/xlink" width="500" zoomAndPan="magnify" viewBox="0 0 375 187.499995" height="250" preserveAspectRatio="xMidYMid meet" version="1.0"><defs><g/><clipPath id="c62017fbb0"><path d="M 3.296875 10 L 141 10 L 141 66 L 3.296875 66 Z M 3.296875 10 " clip-rule="nonzero"/></clipPath><clipPath id="94c417a037"><path d="M 42 93 L 158.882812 93 L 158.882812 176.757812 L 42 176.757812 Z M 42 93 " clip-rule="nonzero"/></clipPath></defs><path fill="#ffa9c6" d="M 33.898438 130.140625 C 28.453125 130.140625 24.007812 125.695312 24.007812 120.25 L 24.007812 58.421875 L 16.996094 63.664062 L 16.996094 120.285156 C 16.996094 129.605469 24.578125 137.1875 33.898438 137.1875 L 64.160156 137.1875 L 64.160156 130.171875 L 33.898438 130.171875 Z M 33.898438 130.140625 " fill-opacity="1" fill-rule="nonzero"/><path fill="#ffa9c6" d="M 120.480469 120.285156 C 120.480469 125.730469 116.035156 130.171875 110.589844 130.171875 L 79.792969 130.171875 L 79.792969 137.1875 L 110.625 137.1875 C 119.945312 137.1875 127.527344 129.605469 127.527344 120.285156 L 127.527344 63.664062 L 120.511719 58.421875 L 120.511719 120.285156 Z M 120.480469 120.285156 " fill-opacity="1" fill-rule="nonzero"/><g clip-path="url(#c62017fbb0)"><path fill="#ffa9c6" d="M 72.246094 17.867188 L 135.078125 64.699219 C 135.542969 65.066406 136.078125 65.269531 136.648438 65.367188 C 136.8125 65.402344 137.015625 65.402344 137.179688 65.402344 C 138.25 65.402344 139.320312 64.902344 139.988281 64 C 141.15625 62.460938 140.820312 60.257812 139.285156 59.089844 L 74.347656 10.6875 C 74.148438 10.554688 73.980469 10.417969 73.78125 10.351562 C 73.144531 10.050781 72.410156 9.953125 71.710938 10.050781 C 71.175781 10.152344 70.640625 10.351562 70.171875 10.71875 L 5.234375 59.089844 C 3.699219 60.257812 3.367188 62.429688 4.535156 64 C 5.335938 65.066406 6.640625 65.570312 7.875 65.367188 C 8.410156 65.269531 8.945312 65.066406 9.410156 64.699219 Z M 72.246094 17.867188 " fill-opacity="1" fill-rule="nonzero"/></g><g clip-path="url(#94c417a037)"><path fill="#55e2d2" d="M 158.625 106.621094 C 158.625 100.507812 153.683594 95.566406 147.570312 95.566406 C 141.457031 95.566406 136.511719 100.507812 136.511719 106.621094 C 136.511719 111.5 139.6875 115.640625 144.097656 117.109375 L 144.097656 135.75 C 144.097656 154.65625 128.730469 170.054688 109.789062 170.054688 C 91.484375 170.054688 76.453125 155.625 75.550781 137.519531 C 75.519531 136.953125 75.519531 136.351562 75.519531 135.75 L 75.519531 120.886719 C 81.03125 120.152344 86.171875 117.679688 90.25 113.769531 C 93.523438 110.632812 96.429688 106.855469 98.902344 102.582031 C 99.601562 101.378906 100.269531 100.140625 100.871094 98.871094 C 101.707031 97.136719 101.003906 95.03125 99.269531 94.195312 C 97.53125 93.359375 95.425781 94.0625 94.589844 95.800781 C 93.988281 97.003906 93.390625 98.171875 92.722656 99.308594 C 90.582031 102.949219 88.144531 106.089844 85.40625 108.726562 C 77.921875 115.941406 66.164062 115.941406 58.683594 108.726562 C 55.941406 106.089844 53.472656 102.914062 51.332031 99.273438 C 50.664062 98.136719 50.03125 96.96875 49.460938 95.734375 C 48.628906 93.996094 46.523438 93.261719 44.785156 94.128906 C 43.050781 94.964844 42.316406 97.070312 43.183594 98.804688 C 43.816406 100.109375 44.484375 101.378906 45.21875 102.613281 C 47.691406 106.890625 50.597656 110.632812 53.871094 113.769531 C 57.949219 117.710938 63.089844 120.152344 68.601562 120.886719 L 68.601562 135.75 C 68.601562 136.351562 68.601562 136.917969 68.636719 137.519531 C 69.570312 159.46875 87.710938 177.039062 109.855469 177.039062 C 132.605469 177.039062 151.109375 158.53125 151.109375 135.785156 L 151.109375 117.144531 C 155.453125 115.640625 158.625 111.5 158.625 106.621094 Z M 147.570312 112.769531 C 144.195312 112.769531 141.421875 110.03125 141.421875 106.621094 C 141.421875 103.214844 144.164062 100.476562 147.570312 100.476562 C 150.945312 100.476562 153.714844 103.214844 153.714844 106.621094 C 153.714844 110.03125 150.945312 112.769531 147.570312 112.769531 Z M 147.570312 112.769531 " fill-opacity="1" fill-rule="nonzero"/></g><path fill="#55e2d2" d="M 147.570312 103.148438 C 145.664062 103.148438 144.128906 104.683594 144.128906 106.589844 C 144.128906 108.492188 145.664062 110.03125 147.570312 110.03125 C 149.472656 110.03125 151.011719 108.492188 151.011719 106.589844 C 151.011719 104.683594 149.472656 103.148438 147.570312 103.148438 Z M 147.570312 108.09375 C 146.769531 108.09375 146.101562 107.425781 146.101562 106.621094 C 146.101562 105.820312 146.769531 105.152344 147.570312 105.152344 C 148.371094 105.152344 149.039062 105.820312 149.039062 106.621094 C 149.039062 107.425781 148.371094 108.09375 147.570312 108.09375 Z M 147.570312 108.09375 " fill-opacity="1" fill-rule="nonzero"/><path fill="#55e2d2" d="M 46.121094 91.925781 C 43.917969 86.3125 42.347656 80 41.414062 73.085938 C 40.777344 67.808594 41.914062 63.566406 44.785156 60.425781 C 47.726562 57.183594 52.070312 55.582031 55.808594 54.746094 C 56.710938 56.015625 58.179688 56.851562 59.851562 56.851562 C 62.558594 56.851562 64.761719 54.644531 64.761719 51.941406 C 64.761719 49.234375 62.558594 47.03125 59.851562 47.03125 C 57.511719 47.03125 55.574219 48.632812 55.074219 50.804688 C 50.699219 51.738281 45.519531 53.675781 41.847656 57.6875 C 38.171875 61.726562 36.667969 67.039062 37.4375 73.519531 L 37.4375 73.554688 C 38.40625 80.835938 40.078125 87.515625 42.449219 93.460938 C 43.382812 92.558594 44.6875 91.957031 46.121094 91.925781 Z M 46.121094 91.925781 " fill-opacity="1" fill-rule="nonzero"/><path fill="#55e2d2" d="M 101.574219 93.527344 C 103.910156 87.582031 105.613281 80.902344 106.582031 73.585938 L 106.582031 73.554688 C 107.351562 67.074219 105.882812 61.726562 102.175781 57.71875 C 98.5 53.710938 93.320312 51.773438 88.945312 50.839844 C 88.445312 48.667969 86.472656 47.0625 84.167969 47.0625 C 81.464844 47.0625 79.257812 49.269531 79.257812 51.972656 C 79.257812 54.679688 81.464844 56.882812 84.167969 56.882812 C 85.839844 56.882812 87.308594 56.050781 88.210938 54.78125 C 91.953125 55.582031 96.296875 57.21875 99.234375 60.457031 C 102.074219 63.597656 103.210938 67.839844 102.609375 73.117188 C 101.671875 80.03125 100.101562 86.347656 97.898438 91.957031 C 99.335938 91.957031 100.636719 92.558594 101.574219 93.527344 Z M 101.574219 93.527344 " fill-opacity="1" fill-rule="nonzero"/><path fill="#ffa9c6" d="M 60.050781 75.789062 L 71.109375 75.789062 L 71.109375 64.734375 C 64.996094 64.734375 60.050781 69.679688 60.050781 75.789062 Z M 60.050781 75.789062 " fill-opacity="1" fill-rule="nonzero"/><path fill="#ffa9c6" d="M 60.050781 78.296875 L 71.109375 78.296875 L 71.109375 89.351562 L 60.050781 89.351562 Z M 60.050781 78.296875 " fill-opacity="1" fill-rule="nonzero"/><path fill="#ffa9c6" d="M 73.414062 64.734375 L 73.414062 75.789062 L 84.46875 75.789062 C 84.46875 69.679688 79.527344 64.734375 73.414062 64.734375 Z M 73.414062 64.734375 " fill-opacity="1" fill-rule="nonzero"/><path fill="#ffa9c6" d="M 73.414062 78.296875 L 84.46875 78.296875 L 84.46875 89.351562 L 73.414062 89.351562 Z M 73.414062 78.296875 " fill-opacity="1" fill-rule="nonzero"/><g fill="#55e2d2" fill-opacity="1"><g transform="translate(166.400255, 101.000571)"><g><path d="M 35.546875 0 L 25.578125 0 L 23.875 -11.390625 L 11.75 -11.390625 L 10.046875 0 L 0.984375 0 L 11.046875 -62.828125 L 25.484375 -62.828125 Z M 13.015625 -19.921875 L 22.53125 -19.921875 L 17.765625 -51.703125 Z M 13.015625 -19.921875 "/></g></g></g><g fill="#55e2d2" fill-opacity="1"><g transform="translate(202.927453, 101.000571)"><g><path d="M 13.46875 -34.90625 L 26.203125 -34.90625 L 26.203125 -25.9375 L 13.46875 -25.9375 L 13.46875 0 L 3.59375 0 L 3.59375 -62.828125 L 29.703125 -62.828125 L 29.703125 -53.84375 L 13.46875 -53.84375 Z M 13.46875 -34.90625 "/></g></g></g><g fill="#55e2d2" fill-opacity="1"><g transform="translate(233.800566, 101.000571)"><g><path d="M 13.46875 -36.34375 L 27.015625 -36.34375 L 27.015625 -27.375 L 13.46875 -27.375 L 13.46875 -8.96875 L 30.515625 -8.96875 L 30.515625 0 L 3.59375 0 L 3.59375 -62.828125 L 30.515625 -62.828125 L 30.515625 -53.84375 L 13.46875 -53.84375 Z M 13.46875 -36.34375 "/></g></g></g><g fill="#55e2d2" fill-opacity="1"><g transform="translate(266.827627, 101.000571)"><g><path d="M 32.21875 -23.421875 L 32.21875 -15.078125 C 32.21875 -9.992188 30.972656 -6.085938 28.484375 -3.359375 C 26.003906 -0.640625 22.34375 0.71875 17.5 0.71875 C 12.65625 0.71875 8.988281 -0.640625 6.5 -3.359375 C 4.019531 -6.085938 2.78125 -9.992188 2.78125 -15.078125 L 2.78125 -47.75 C 2.78125 -52.832031 4.019531 -56.734375 6.5 -59.453125 C 8.988281 -62.179688 12.65625 -63.546875 17.5 -63.546875 C 22.34375 -63.546875 26.003906 -62.179688 28.484375 -59.453125 C 30.972656 -56.734375 32.21875 -52.832031 32.21875 -47.75 L 32.21875 -41.640625 L 22.890625 -41.640625 L 22.890625 -48.375 C 22.890625 -50.644531 22.425781 -52.242188 21.5 -53.171875 C 20.570312 -54.097656 19.328125 -54.5625 17.765625 -54.5625 C 16.210938 -54.5625 14.972656 -54.097656 14.046875 -53.171875 C 13.117188 -52.242188 12.65625 -50.644531 12.65625 -48.375 L 12.65625 -14.453125 C 12.65625 -12.179688 13.117188 -10.59375 14.046875 -9.6875 C 14.972656 -8.789062 16.210938 -8.34375 17.765625 -8.34375 C 19.328125 -8.34375 20.570312 -8.789062 21.5 -9.6875 C 22.425781 -10.59375 22.890625 -12.179688 22.890625 -14.453125 L 22.890625 -23.421875 Z M 32.21875 -23.421875 "/></g></g></g><g fill="#55e2d2" fill-opacity="1"><g transform="translate(301.470139, 101.000571)"><g><path d="M 0.71875 -62.828125 L 31.234375 -62.828125 L 31.234375 -53.84375 L 20.90625 -53.84375 L 20.90625 0 L 11.046875 0 L 11.046875 -53.84375 L 0.71875 -53.84375 Z M 0.71875 -62.828125 "/></g></g></g><g fill="#55e2d2" fill-opacity="1"><g transform="translate(333.420219, 101.000571)"><g><path d="M 12.65625 -14.453125 C 12.65625 -12.179688 13.117188 -10.578125 14.046875 -9.640625 C 14.972656 -8.710938 16.210938 -8.25 17.765625 -8.25 C 19.328125 -8.25 20.570312 -8.710938 21.5 -9.640625 C 22.425781 -10.578125 22.890625 -12.179688 22.890625 -14.453125 L 22.890625 -48.375 C 22.890625 -50.644531 22.425781 -52.242188 21.5 -53.171875 C 20.570312 -54.097656 19.328125 -54.5625 17.765625 -54.5625 C 16.210938 -54.5625 14.972656 -54.097656 14.046875 -53.171875 C 13.117188 -52.242188 12.65625 -50.644531 12.65625 -48.375 Z M 2.78125 -47.75 C 2.78125 -52.832031 4.066406 -56.734375 6.640625 -59.453125 C 9.210938 -62.179688 12.921875 -63.546875 17.765625 -63.546875 C 22.617188 -63.546875 26.332031 -62.179688 28.90625 -59.453125 C 31.476562 -56.734375 32.765625 -52.832031 32.765625 -47.75 L 32.765625 -15.078125 C 32.765625 -9.992188 31.476562 -6.085938 28.90625 -3.359375 C 26.332031 -0.640625 22.617188 0.71875 17.765625 0.71875 C 12.921875 0.71875 9.210938 -0.640625 6.640625 -3.359375 C 4.066406 -6.085938 2.78125 -9.992188 2.78125 -15.078125 Z M 2.78125 -47.75 "/></g></g></g><g fill="#ffa9c6" fill-opacity="1"><g transform="translate(166.400255, 131.820489)"><g><path d="M 7.859375 -10.609375 L 7.859375 -8.703125 L 3.21875 -8.703125 L 3.21875 -1.9375 L 8.921875 -1.9375 L 8.921875 0 L 1.09375 0 L 1.09375 -19.046875 L 8.921875 -19.046875 L 8.921875 -17.125 L 3.21875 -17.125 L 3.21875 -10.609375 Z M 7.859375 -10.609375 "/></g></g></g><g fill="#ffa9c6" fill-opacity="1"><g transform="translate(176.196292, 131.820489)"><g><path d="M 2.96875 0 L 1.0625 0 L 1.0625 -19.046875 L 3.75 -19.046875 L 8.171875 -5.28125 L 8.171875 -19.046875 L 10.046875 -19.046875 L 10.046875 0 L 7.84375 0 L 2.96875 -15.40625 Z M 2.96875 0 "/></g></g></g><g fill="#ffa9c6" fill-opacity="1"><g transform="translate(187.325676, 131.820489)"><g><path d="M 7.59375 -10.1875 L 7.59375 -8.25 L 3.21875 -8.25 L 3.21875 0 L 1.09375 0 L 1.09375 -19.046875 L 8.65625 -19.046875 L 8.65625 -17.125 L 3.21875 -17.125 L 3.21875 -10.1875 Z M 7.59375 -10.1875 "/></g></g></g><g fill="#ffa9c6" fill-opacity="1"><g transform="translate(196.577486, 131.820489)"><g><path d="M 7.859375 -10.609375 L 7.859375 -8.703125 L 3.21875 -8.703125 L 3.21875 -1.9375 L 8.921875 -1.9375 L 8.921875 0 L 1.09375 0 L 1.09375 -19.046875 L 8.921875 -19.046875 L 8.921875 -17.125 L 3.21875 -17.125 L 3.21875 -10.609375 Z M 7.859375 -10.609375 "/></g></g></g><g fill="#ffa9c6" fill-opacity="1"><g transform="translate(206.373523, 131.820489)"><g><path d="M 5.328125 -19.046875 C 6.835938 -19.046875 7.921875 -18.675781 8.578125 -17.9375 C 9.242188 -17.195312 9.578125 -16.117188 9.578125 -14.703125 L 9.578125 -13.140625 C 9.578125 -12.085938 9.382812 -11.234375 9 -10.578125 C 8.625 -9.929688 8.03125 -9.484375 7.21875 -9.234375 C 8.082031 -8.972656 8.695312 -8.503906 9.0625 -7.828125 C 9.425781 -7.148438 9.609375 -6.289062 9.609375 -5.25 L 9.609375 -2.28125 C 9.609375 -1.863281 9.625 -1.457031 9.65625 -1.0625 C 9.695312 -0.675781 9.804688 -0.320312 9.984375 0 L 7.84375 0 C 7.71875 -0.269531 7.625 -0.5625 7.5625 -0.875 C 7.507812 -1.195312 7.484375 -1.675781 7.484375 -2.3125 L 7.484375 -5.3125 C 7.484375 -6.375 7.242188 -7.109375 6.765625 -7.515625 C 6.285156 -7.929688 5.597656 -8.140625 4.703125 -8.140625 L 3.21875 -8.140625 L 3.21875 0 L 1.09375 0 L 1.09375 -19.046875 Z M 4.796875 -10.078125 C 5.640625 -10.078125 6.296875 -10.25 6.765625 -10.59375 C 7.242188 -10.945312 7.484375 -11.644531 7.484375 -12.6875 L 7.484375 -14.5 C 7.484375 -15.375 7.316406 -16.03125 6.984375 -16.46875 C 6.648438 -16.90625 6.082031 -17.125 5.28125 -17.125 L 3.21875 -17.125 L 3.21875 -10.078125 Z M 4.796875 -10.078125 "/></g></g></g><g fill="#ffa9c6" fill-opacity="1"><g transform="translate(217.094736, 131.820489)"><g><path d="M 8.109375 -0.03125 L 6.0625 -0.03125 L 2.90625 -15.1875 L 2.90625 0 L 1.0625 0 L 1.0625 -19.046875 L 4.03125 -19.046875 L 7.15625 -3.84375 L 10.1875 -19.046875 L 13.140625 -19.046875 L 13.140625 0 L 11.125 0 L 11.125 -15.328125 Z M 8.109375 -0.03125 "/></g></g></g><g fill="#ffa9c6" fill-opacity="1"><g transform="translate(231.326192, 131.820489)"><g><path d="M 3.234375 -3.84375 L 2.5 0 L 0.546875 0 L 4.1875 -19.046875 L 7.265625 -19.046875 L 10.921875 0 L 8.796875 0 L 8.0625 -3.84375 Z M 3.515625 -5.65625 L 7.75 -5.65625 L 5.609375 -16.65625 Z M 3.515625 -5.65625 "/></g></g></g><g fill="#ffa9c6" fill-opacity="1"><g transform="translate(242.809316, 131.820489)"><g><path d="M 5.203125 -19.25 C 6.671875 -19.25 7.753906 -18.8125 8.453125 -17.9375 C 9.148438 -17.0625 9.5 -15.898438 9.5 -14.453125 L 9.5 -12.8125 L 7.484375 -12.8125 L 7.484375 -14.5625 C 7.484375 -15.4375 7.304688 -16.113281 6.953125 -16.59375 C 6.597656 -17.070312 6.03125 -17.3125 5.25 -17.3125 C 4.488281 -17.3125 3.925781 -17.070312 3.5625 -16.59375 C 3.195312 -16.113281 3.015625 -15.4375 3.015625 -14.5625 L 3.015625 -4.484375 C 3.015625 -3.617188 3.195312 -2.941406 3.5625 -2.453125 C 3.925781 -1.972656 4.488281 -1.734375 5.25 -1.734375 C 6.03125 -1.734375 6.597656 -1.972656 6.953125 -2.453125 C 7.304688 -2.941406 7.484375 -3.617188 7.484375 -4.484375 L 7.484375 -8.296875 L 5.53125 -8.296875 L 5.53125 -10.203125 L 9.5 -10.203125 L 9.5 -4.59375 C 9.5 -3.144531 9.148438 -1.984375 8.453125 -1.109375 C 7.753906 -0.242188 6.671875 0.1875 5.203125 0.1875 C 3.742188 0.1875 2.664062 -0.242188 1.96875 -1.109375 C 1.269531 -1.984375 0.921875 -3.144531 0.921875 -4.59375 L 0.921875 -14.453125 C 0.921875 -15.179688 1.003906 -15.835938 1.171875 -16.421875 C 1.347656 -17.015625 1.613281 -17.519531 1.96875 -17.9375 C 2.320312 -18.351562 2.765625 -18.675781 3.296875 -18.90625 C 3.835938 -19.132812 4.472656 -19.25 5.203125 -19.25 Z M 5.203125 -19.25 "/></g></g></g><g fill="#ffa9c6" fill-opacity="1"><g transform="translate(253.231207, 131.820489)"><g><path d="M 7.859375 -10.609375 L 7.859375 -8.703125 L 3.21875 -8.703125 L 3.21875 -1.9375 L 8.921875 -1.9375 L 8.921875 0 L 1.09375 0 L 1.09375 -19.046875 L 8.921875 -19.046875 L 8.921875 -17.125 L 3.21875 -17.125 L 3.21875 -10.609375 Z M 7.859375 -10.609375 "/></g></g></g><g fill="#ffa9c6" fill-opacity="1"><g transform="translate(263.027244, 131.820489)"><g><path d="M 8.109375 -0.03125 L 6.0625 -0.03125 L 2.90625 -15.1875 L 2.90625 0 L 1.0625 0 L 1.0625 -19.046875 L 4.03125 -19.046875 L 7.15625 -3.84375 L 10.1875 -19.046875 L 13.140625 -19.046875 L 13.140625 0 L 11.125 0 L 11.125 -15.328125 Z M 8.109375 -0.03125 "/></g></g></g><g fill="#ffa9c6" fill-opacity="1"><g transform="translate(277.2587, 131.820489)"><g/></g></g><g fill="#ffa9c6" fill-opacity="1"><g transform="translate(281.476435, 131.820489)"><g><path d="M 5.546875 -19.046875 C 7.035156 -19.046875 8.128906 -18.625 8.828125 -17.78125 C 9.523438 -16.9375 9.875 -15.78125 9.875 -14.3125 L 9.875 -4.703125 C 9.875 -3.234375 9.523438 -2.082031 8.828125 -1.25 C 8.128906 -0.414062 7.035156 0 5.546875 0 L 1.09375 0 L 1.09375 -19.046875 Z M 5.53125 -1.9375 C 6.289062 -1.9375 6.851562 -2.164062 7.21875 -2.625 C 7.59375 -3.09375 7.78125 -3.757812 7.78125 -4.625 L 7.78125 -14.421875 C 7.78125 -15.296875 7.59375 -15.960938 7.21875 -16.421875 C 6.851562 -16.890625 6.28125 -17.125 5.5 -17.125 L 3.21875 -17.125 L 3.21875 -1.9375 Z M 5.53125 -1.9375 "/></g></g></g><g fill="#ffa9c6" fill-opacity="1"><g transform="translate(292.252066, 131.820489)"><g><path d="M 0.921875 -14.453125 C 0.921875 -15.921875 1.28125 -17.085938 2 -17.953125 C 2.71875 -18.816406 3.8125 -19.25 5.28125 -19.25 C 6.75 -19.25 7.84375 -18.816406 8.5625 -17.953125 C 9.289062 -17.085938 9.65625 -15.921875 9.65625 -14.453125 L 9.65625 -4.59375 C 9.65625 -3.144531 9.289062 -1.984375 8.5625 -1.109375 C 7.84375 -0.242188 6.75 0.1875 5.28125 0.1875 C 3.8125 0.1875 2.71875 -0.242188 2 -1.109375 C 1.28125 -1.984375 0.921875 -3.144531 0.921875 -4.59375 Z M 3.015625 -4.484375 C 3.015625 -3.617188 3.203125 -2.941406 3.578125 -2.453125 C 3.953125 -1.972656 4.519531 -1.734375 5.28125 -1.734375 C 6.0625 -1.734375 6.632812 -1.972656 7 -2.453125 C 7.363281 -2.941406 7.546875 -3.617188 7.546875 -4.484375 L 7.546875 -14.5625 C 7.546875 -15.4375 7.363281 -16.113281 7 -16.59375 C 6.632812 -17.070312 6.0625 -17.3125 5.28125 -17.3125 C 4.519531 -17.3125 3.953125 -17.070312 3.578125 -16.59375 C 3.203125 -16.113281 3.015625 -15.4375 3.015625 -14.5625 Z M 3.015625 -4.484375 "/></g></g></g><g fill="#ffa9c6" fill-opacity="1"><g transform="translate(302.837222, 131.820489)"><g><path d="M 8.109375 -0.03125 L 6.0625 -0.03125 L 2.90625 -15.1875 L 2.90625 0 L 1.0625 0 L 1.0625 -19.046875 L 4.03125 -19.046875 L 7.15625 -3.84375 L 10.1875 -19.046875 L 13.140625 -19.046875 L 13.140625 0 L 11.125 0 L 11.125 -15.328125 Z M 8.109375 -0.03125 "/></g></g></g><g fill="#ffa9c6" fill-opacity="1"><g transform="translate(317.068678, 131.820489)"><g><path d="M 3.21875 -19.046875 L 3.21875 0 L 1.09375 0 L 1.09375 -19.046875 Z M 3.21875 -19.046875 "/></g></g></g><g fill="#ffa9c6" fill-opacity="1"><g transform="translate(321.368052, 131.820489)"><g><path d="M 5.203125 -19.25 C 6.671875 -19.25 7.753906 -18.8125 8.453125 -17.9375 C 9.148438 -17.0625 9.5 -15.898438 9.5 -14.453125 L 9.5 -12.734375 L 7.484375 -12.734375 L 7.484375 -14.5625 C 7.484375 -15.4375 7.304688 -16.113281 6.953125 -16.59375 C 6.597656 -17.070312 6.03125 -17.3125 5.25 -17.3125 C 4.488281 -17.3125 3.925781 -17.070312 3.5625 -16.59375 C 3.195312 -16.113281 3.015625 -15.4375 3.015625 -14.5625 L 3.015625 -4.484375 C 3.015625 -3.617188 3.195312 -2.941406 3.5625 -2.453125 C 3.925781 -1.972656 4.488281 -1.734375 5.25 -1.734375 C 6.03125 -1.734375 6.597656 -1.972656 6.953125 -2.453125 C 7.304688 -2.941406 7.484375 -3.617188 7.484375 -4.484375 L 7.484375 -6.96875 L 9.5 -6.96875 L 9.5 -4.59375 C 9.5 -3.144531 9.148438 -1.984375 8.453125 -1.109375 C 7.753906 -0.242188 6.671875 0.1875 5.203125 0.1875 C 3.742188 0.1875 2.664062 -0.242188 1.96875 -1.109375 C 1.269531 -1.984375 0.921875 -3.144531 0.921875 -4.59375 L 0.921875 -14.453125 C 0.921875 -15.179688 1.003906 -15.835938 1.171875 -16.421875 C 1.347656 -17.015625 1.613281 -17.519531 1.96875 -17.9375 C 2.320312 -18.351562 2.765625 -18.675781 3.296875 -18.90625 C 3.835938 -19.132812 4.472656 -19.25 5.203125 -19.25 Z M 5.203125 -19.25 "/></g></g></g><g fill="#ffa9c6" fill-opacity="1"><g transform="translate(331.708304, 131.820489)"><g><path d="M 3.21875 -19.046875 L 3.21875 0 L 1.09375 0 L 1.09375 -19.046875 Z M 3.21875 -19.046875 "/></g></g></g><g fill="#ffa9c6" fill-opacity="1"><g transform="translate(336.007678, 131.820489)"><g><path d="M 1.09375 0 L 1.09375 -19.046875 L 3.21875 -19.046875 L 3.21875 -1.9375 L 8.65625 -1.9375 L 8.65625 0 Z M 1.09375 0 "/></g></g></g><g fill="#ffa9c6" fill-opacity="1"><g transform="translate(345.177849, 131.820489)"><g><path d="M 3.21875 -19.046875 L 3.21875 0 L 1.09375 0 L 1.09375 -19.046875 Z M 3.21875 -19.046875 "/></g></g></g><g fill="#ffa9c6" fill-opacity="1"><g transform="translate(349.477223, 131.820489)"><g><path d="M 3.234375 -3.84375 L 2.5 0 L 0.546875 0 L 4.1875 -19.046875 L 7.265625 -19.046875 L 10.921875 0 L 8.796875 0 L 8.0625 -3.84375 Z M 3.515625 -5.65625 L 7.75 -5.65625 L 5.609375 -16.65625 Z M 3.515625 -5.65625 "/></g></g></g><g fill="#ffa9c6" fill-opacity="1"><g transform="translate(360.960347, 131.820489)"><g><path d="M 5.328125 -19.046875 C 6.835938 -19.046875 7.921875 -18.675781 8.578125 -17.9375 C 9.242188 -17.195312 9.578125 -16.117188 9.578125 -14.703125 L 9.578125 -13.140625 C 9.578125 -12.085938 9.382812 -11.234375 9 -10.578125 C 8.625 -9.929688 8.03125 -9.484375 7.21875 -9.234375 C 8.082031 -8.972656 8.695312 -8.503906 9.0625 -7.828125 C 9.425781 -7.148438 9.609375 -6.289062 9.609375 -5.25 L 9.609375 -2.28125 C 9.609375 -1.863281 9.625 -1.457031 9.65625 -1.0625 C 9.695312 -0.675781 9.804688 -0.320312 9.984375 0 L 7.84375 0 C 7.71875 -0.269531 7.625 -0.5625 7.5625 -0.875 C 7.507812 -1.195312 7.484375 -1.675781 7.484375 -2.3125 L 7.484375 -5.3125 C 7.484375 -6.375 7.242188 -7.109375 6.765625 -7.515625 C 6.285156 -7.929688 5.597656 -8.140625 4.703125 -8.140625 L 3.21875 -8.140625 L 3.21875 0 L 1.09375 0 L 1.09375 -19.046875 Z M 4.796875 -10.078125 C 5.640625 -10.078125 6.296875 -10.25 6.765625 -10.59375 C 7.242188 -10.945312 7.484375 -11.644531 7.484375 -12.6875 L 7.484375 -14.5 C 7.484375 -15.375 7.316406 -16.03125 6.984375 -16.46875 C 6.648438 -16.90625 6.082031 -17.125 5.28125 -17.125 L 3.21875 -17.125 L 3.21875 -10.078125 Z M 4.796875 -10.078125 "/></g></g></g></svg>